<svg xmlns="http://www.w3.org/2000/svg" xmlns:xlink="http://www.w3.org/1999/xlink" width="183" height="64" viewBox="0 0 183 64"><defs><path id="syh0a" d="M187.143 62.972c-.84 11.924-13.648 21.095-29.843 21.095-16.194 0-29.003-9.171-29.842-21.095.243-3.926 1.671-8.413 4.027-12.714 4.102-7.476 11.021-14.366 19.449-16.766a22.822 22.822 0 0 1 12.733 0c8.431 2.4 15.347 9.29 19.45 16.766 2.351 4.301 3.78 8.788 4.026 12.714z"/><path id="syh0b" d="M163.138 73.541a2.512 2.512 0 0 1-2.52 2.506 2.512 2.512 0 0 1-2.518-2.506v-.372a6.531 6.531 0 0 0 5.658-5.328 1.554 1.554 0 0 0-.867-1.65 12.74 12.74 0 0 0-11.141 0c-.637.302-.99.992-.864 1.682a6.511 6.511 0 0 0 5.647 5.3v.372a2.512 2.512 0 0 1-2.52 2.506 2.512 2.512 0 0 1-2.518-2.506h-1.592a4.071 4.071 0 0 0 2.835 3.858 4.102 4.102 0 0 0 4.566-1.483 4.102 4.102 0 0 0 4.567 1.483 4.071 4.071 0 0 0 2.834-3.858zm7.476-13.795c-2.958 0-5.355-2.385-5.355-5.328h6.326c-.28.766-.168 1.62.302 2.287a2.51 2.51 0 0 0 3.048.856 5.353 5.353 0 0 1-4.32 2.185zm7.859-8.906a14.105 14.105 0 0 0-.263-1.211c-1.476-5.483-6.406-8.93-11.01-7.703-3.688.99-6.044 4.667-6.08 8.914-.004 1.092.138 2.18.422 3.234 1.48 5.478 6.402 8.93 11.002 7.703 4.27-1.136 6.764-5.886 5.929-10.937zm-34.486 8.906c-2.96 0-5.358-2.388-5.356-5.332h6.327c-.283.766-.171 1.621.3 2.29a2.51 2.51 0 0 0 2.06 1.063c.34.001.677-.067.99-.202a5.36 5.36 0 0 1-4.321 2.181zm-5.75-8.906c-.616 0-1.205.25-1.631.691a2.25 2.25 0 0 0-.633 1.648c.147 4.113 2.479 7.64 6.072 8.598 4.604 1.227 9.55-2.225 11.01-7.703.052-.182.095-.368.135-.55a2.228 2.228 0 0 0-.467-1.869 2.253 2.253 0 0 0-1.753-.815zm19.06 35.776c-16.764 0-29.895-9.849-29.895-22.385 0-.396 0-.827.048-1.255.25-3.93 1.679-8.423 4.035-12.73a39.795 39.795 0 0 1 2.968-4.627c3.02-4.081 6.892-7.68 11.364-10.066a25.872 25.872 0 0 1 5.117-2.082 22.794 22.794 0 0 1 12.733 0 25.812 25.812 0 0 1 5.12 2.082c4.473 2.375 8.357 5.997 11.365 10.078a39.24 39.24 0 0 1 2.956 4.615c2.36 4.295 3.788 8.788 4.035 12.718.036.428.048.844.048 1.255 0 12.548-13.135 22.397-29.895 22.397zm28.378-38.662c4.834-5.511 4.263-13.878-1.277-18.687-5.54-4.81-13.95-4.24-18.785 1.27a25.971 25.971 0 0 0-16.668 0c-4.829-5.509-13.232-6.081-18.77-1.278-5.537 4.803-6.113 13.162-1.285 18.672-3.091 5.41-4.89 11.222-4.89 16.3 0 7.185 3.525 13.791 9.948 18.604 6.155 4.62 14.46 7.165 23.348 7.165 8.89 0 17.19-2.553 23.37-7.18 6.402-4.798 9.947-11.404 9.947-18.605-.016-5.062-1.815-10.87-4.938-16.26z"/><path id="syh0d" d="M145.817 35.603c-4.472 2.387-8.356 6.028-11.364 10.13a7.799 7.799 0 1 1 11.364-10.13z"/><path id="syh0f" d="M183.39 39.407a7.755 7.755 0 0 1-3.246 6.326c-3.024-4.114-6.892-7.731-11.364-10.13a7.803 7.803 0 0 1 14.61 3.804z"/><path id="syh0h" d="M187.19 64.097c0 12.613-13.13 22.501-29.894 22.501-16.763 0-29.894-9.9-29.894-22.501 0-.398 0-.832.048-1.262.843 12.001 13.648 21.232 29.843 21.232 16.194 0 29.007-9.23 29.842-21.232.044.43.056.848.056 1.262z"/><path id="syh0j" d="M161.36 67c0 .569-1.851-.295-4.131-.295-2.28 0-4.126.864-4.126.295 0-.57 1.866-1.162 4.126-1.162 2.26 0 4.13.593 4.13 1.162z"/><path id="syh0l" d="M260.871 44.06v10.115h-4.078v-9.243c0-1.691-.848-2.96-2.786-2.96-1.798 0-2.876 1.396-2.876 3.063v9.152h-4.178v-9.255c0-1.691-.868-2.96-2.786-2.96-1.822 0-2.904 1.372-2.904 3.063v9.152h-4.175V38.593h4.011v1.898c.848-1.532 2.857-2.347 4.576-2.347 2.113 0 3.824.923 4.62 2.586 1.217-1.902 2.88-2.586 4.938-2.586 2.88 0 5.638 1.742 5.638 5.916zm9.952 6.76h-.004zm-.002 0c2.068 0 3.977-1.5 3.977-4.456 0-2.956-1.922-4.432-3.98-4.432-2.056 0-3.954 1.543-3.954 4.448 0 2.904 1.896 4.44 3.957 4.44zm.002-12.704h-.004zm-.002 0c4.65 0 8.159 3.498 8.159 8.28 0 4.783-3.522 8.268-8.161 8.268-4.64 0-8.181-3.453-8.181-8.284 0-4.83 3.54-8.263 8.183-8.264zm19.423.398v4.25a5.439 5.439 0 0 0-1.269-.132c-2.133 0-4.01 1.058-4.01 4.413v7.13h-4.199V38.593h4.063v2.296c.955-2.061 3.12-2.431 4.44-2.431.343 0 .649.028.975.056zm12.61 6.068c-.08-1.532-1.098-3.064-3.486-3.064a3.374 3.374 0 0 0-3.49 3.064zM307 46.173c0 .605-.08 1.242-.084 1.325h-11.14c.103 2.061 1.845 3.542 3.934 3.542 1.413 0 2.372-.526 2.98-1.322h4.071c-.792 2.694-3.247 4.938-7.078 4.938-4.282 0-8.058-3.095-8.058-8.356 0-4.965 3.68-8.184 7.66-8.184 4.838 0 7.715 3.064 7.715 8.057z"/><path id="syh0n" d="M210.318 50.85c-2.14 0-3.912-1.591-3.912-4.44 0-2.85 1.771-4.377 3.912-4.377 2.14 0 3.851 1.532 3.851 4.377 0 2.845-1.71 4.44-3.851 4.44zm.871-12.597c-2.3 0-4.015 1.002-4.703 2.112v-4.89a4.178 4.178 0 0 0-4.142-4.17V54.26h4.062v-1.898c.82 1.321 2.483 2.272 4.624 2.272 4.437 0 7.365-3.513 7.365-8.24 0-4.632-2.638-8.141-7.206-8.141z"/><path id="syh0o" d="M224.361 44.578a3.41 3.41 0 0 1 3.486-3.044c2.387 0 3.434 1.532 3.486 3.06zm11.122 1.591c0-4.99-2.885-8.053-7.688-8.053-3.979 0-7.66 3.219-7.66 8.185 0 5.256 3.749 8.355 8.03 8.355 3.828 0 6.311-2.24 7.103-4.938H231.2c-.609.796-1.591 1.322-3.004 1.322-2.085 0-3.828-1.477-3.907-3.542h11.141c-.004-.087.052-.724.052-1.329z"/><path id="syh0p" d="M210.397 75.37c-2.164 0-3.911-1.636-3.911-4.378 0-2.741 1.747-4.377 3.911-4.377 2.165 0 3.86 1.592 3.86 4.377 0 2.786-1.715 4.377-3.86 4.377zm.82-12.547c-2.348 0-4.094 1.055-4.775 2.268v-1.898h-4.098V80.57a4.214 4.214 0 0 0 4.198 4.226v-7.56c.768 1.058 2.351 1.901 4.52 1.901 4.377 0 7.337-3.485 7.337-8.216 0-4.612-2.614-8.098-7.182-8.098z"/><path id="syh0q" d="M229.807 72.552c0 2.745-1.636 3.617-3.434 3.617-1.35 0-1.99-.9-1.99-1.823 0-1.193.844-1.794 1.926-1.953l3.513-.53zm4.118 3.824v-7.668c0-3.143-1.85-5.917-6.788-5.917-4.17 0-6.419 2.694-6.681 5.125l3.752.796c.104-1.373 1.134-2.535 2.956-2.535 1.823 0 2.643.928 2.643 2.034 0 .529-.295.979-1.194 1.106l-3.832.557c-2.59.398-4.647 1.926-4.647 4.731 0 2.427 2.033 4.675 5.36 4.675 2.3 0 3.803-1.058 4.595-2.3a9.574 9.574 0 0 0 .16 1.875h3.855a16.71 16.71 0 0 1-.18-2.48z"/><path id="syh0r" d="M244.44 62.85c-1.692 0-3.542.735-4.493 2.347V63.27h-4.09v15.582h4.197v-8.98c0-1.8 1.087-3.22 2.933-3.22 2.033 0 2.877 1.369 2.877 3.112v9.088h4.198v-9.824c0-3.434-1.763-6.18-5.623-6.18z"/><path id="syh0s" d="M259.94 75.458c-2.221 0-3.884-1.636-3.884-4.441 0-2.805 1.715-4.353 3.883-4.353 2.169 0 3.828 1.556 3.828 4.33 0 2.773-1.69 4.464-3.828 4.464zm7.894.577V55.909a4.178 4.178 0 0 0-4.146 4.166v4.739c-.45-.82-1.72-1.926-4.377-1.926-4.41 0-7.5 3.581-7.5 8.129 0 4.731 3.182 8.217 7.603 8.217 2.09 0 3.673-.951 4.377-2.193a9.435 9.435 0 0 0 .155 1.823h4.019a37 37 0 0 1-.131-2.83z"/><path id="syh0t" d="M279.318 72.552c0 2.745-1.635 3.617-3.434 3.617-1.345 0-1.99-.9-1.99-1.823 0-1.193.844-1.794 1.93-1.953l3.51-.53zm4.118 3.824v-7.668c0-3.143-1.846-5.917-6.764-5.917-4.17 0-6.418 2.694-6.681 5.125l3.752.796c.1-1.373 1.134-2.535 2.957-2.535 1.822 0 2.638.928 2.638 2.034 0 .529-.29.979-1.162 1.106l-3.856.557c-2.59.398-4.647 1.926-4.647 4.731 0 2.427 2.033 4.675 5.363 4.675 2.296 0 3.8-1.058 4.596-2.3a9.6 9.6 0 0 0 .155 1.875h3.856c-.13-.82-.2-1.649-.207-2.48z"/><linearGradient id="syh0c" x1="131.15" x2="183.44" y1="80.45" y2="28.43" gradientUnits="userSpaceOnUse"><stop offset="0" stop-color="#fc6076"/><stop offset="1" stop-color="#ff9a44"/></linearGradient><linearGradient id="syh0e" x1="138.51" x2="138.51" y1="31.61" y2="45.73" gradientUnits="userSpaceOnUse"><stop offset="0" stop-color="#e7e9ee"/><stop offset="1" stop-color="#f2f6fa"/></linearGradient><linearGradient id="syh0g" x1="176.08" x2="176.08" y1="31.61" y2="45.73" gradientUnits="userSpaceOnUse"><stop offset="0" stop-color="#e7e9ee"/><stop offset="1" stop-color="#f2f6fa"/></linearGradient><linearGradient id="syh0i" x1="127.4" x2="187.19" y1="74.72" y2="74.72" gradientUnits="userSpaceOnUse"><stop offset="0" stop-color="#e7e9ee"/><stop offset="1" stop-color="#f2f6fa"/></linearGradient><linearGradient id="syh0k" x1="153.1" x2="161.36" y1="66.52" y2="66.52" gradientUnits="userSpaceOnUse"><stop offset="0" stop-color="#fff"/><stop offset="1" stop-color="#e0e0e0"/></linearGradient><linearGradient id="syh0m" x1="249.79" x2="290.67" y1="66.86" y2="26" gradientUnits="userSpaceOnUse"><stop offset="0" stop-color="#fc6076"/><stop offset="1" stop-color="#ff9a44"/></linearGradient></defs><g><g transform="translate(-124 -26)"><g><g><use fill="#fff" xlink:href="#syh0a"/></g><g><use fill="url(#syh0c)" xlink:href="#syh0b"/></g><g opacity=".4"><g opacity=".4"><use fill="url(#syh0e)" xlink:href="#syh0d"/></g><g opacity=".4"><use fill="url(#syh0g)" xlink:href="#syh0f"/></g></g><g><use fill="url(#syh0i)" xlink:href="#syh0h"/></g><g opacity=".6"><use fill="url(#syh0k)" xlink:href="#syh0j"/></g><g><use fill="url(#syh0m)" xlink:href="#syh0l"/></g><g><use fill="#002538" xlink:href="#syh0n"/></g><g><use fill="#002538" xlink:href="#syh0o"/></g><g><use fill="#002538" xlink:href="#syh0p"/></g><g><use fill="#002538" xlink:href="#syh0q"/></g><g><use fill="#002538" xlink:href="#syh0r"/></g><g><use fill="#002538" xlink:href="#syh0s"/></g><g><use fill="#002538" xlink:href="#syh0t"/></g></g></g></g></svg>